<svg version="1.1" id="Layer_1" xmlns="http://www.w3.org/2000/svg" xmlns:xlink="http://www.w3.org/1999/xlink" x="0px" y="0px"
	 width="100%" viewBox="0 0 288 288" enable-background="new 0 0 288 288" xml:space="preserve">
<path fill="#000000" opacity="1.000000" stroke="none" 
	d="
M52.820129,182.028931 
	C52.148960,180.540024 51.638813,179.353394 51.006020,177.881500 
	C48.155231,179.458481 45.504009,181.833344 42.686310,178.026672 
	C40.850689,175.546768 39.739983,173.544159 42.901505,171.392365 
	C44.851486,170.065170 44.805702,168.197845 43.488323,166.636963 
	C40.881500,163.548294 39.632259,158.942154 33.824425,159.509354 
	C31.131500,159.772324 29.749043,156.330902 28.702801,153.921738 
	C27.596790,151.374969 30.000017,150.491287 31.549679,149.362808 
	C34.504723,147.210892 37.542023,145.171249 40.480820,142.997971 
	C41.749443,142.059814 43.095261,140.957413 44.420185,142.373260 
	C46.041706,144.106049 44.527050,145.367325 43.225117,146.473663 
	C42.276657,147.279617 41.297203,148.049088 40.026901,149.082733 
	C43.052658,149.268097 45.156700,144.282272 47.250134,147.478943 
	C49.349346,150.684433 45.032825,151.850830 43.106678,153.616318 
	C42.246380,154.404861 41.374683,155.180786 41.825191,156.782669 
	C44.717934,157.529709 46.792244,155.569672 49.105133,154.629868 
	C50.594345,154.024780 52.195522,153.427734 53.047382,155.116135 
	C53.944717,156.894653 52.525009,157.705124 50.965385,158.306915 
	C47.604053,159.603912 51.012650,163.100845 48.167900,164.301666 
	C50.217182,165.867706 51.051262,164.795853 51.989952,164.192215 
	C54.564762,162.536453 56.912273,161.411621 56.295444,166.277893 
	C56.083359,167.951050 57.457512,167.526199 58.241306,167.908707 
	C60.075951,168.804016 59.926071,169.995636 58.979057,171.564209 
	C55.173645,177.867249 56.063107,180.958252 62.387440,184.741226 
	C64.567436,186.045227 67.433197,186.413055 69.033081,189.081665 
	C65.817070,192.158676 62.608013,188.984497 59.645077,189.327393 
	C58.968445,191.293320 59.966770,192.375992 61.172287,193.341217 
	C69.634483,200.116714 78.823189,204.646561 89.948601,205.970062 
	C101.069641,207.293045 112.144417,207.892578 123.297188,207.993988 
	C126.096428,208.019440 128.314087,207.342148 130.305923,205.064178 
	C134.722534,200.013107 140.834366,198.699265 147.128052,199.220963 
	C151.290482,199.565994 155.425583,199.819962 159.576172,199.661789 
	C163.210098,199.523285 166.587234,200.107407 169.411743,202.476700 
	C171.161118,203.944122 173.056381,203.965363 175.059052,203.564255 
	C198.593750,198.850769 220.306763,190.056061 238.886398,174.522568 
	C243.703171,170.495483 246.796600,165.290543 247.034149,158.255341 
	C244.027267,158.660110 242.910019,161.066055 240.899460,161.962509 
	C239.780640,162.461349 238.694458,162.938675 237.730789,161.812119 
	C236.773438,160.692978 237.229370,159.616302 238.097580,158.699875 
	C239.356766,157.370712 240.652863,156.073975 241.977646,154.809998 
	C244.875824,152.044891 246.220612,148.899582 244.609207,144.929520 
	C244.057205,143.569504 243.100388,141.874802 245.321838,141.251572 
	C247.589340,140.615433 248.847763,142.202972 249.126816,144.170578 
	C250.490479,153.785492 255.337906,163.612106 247.660645,172.780090 
	C247.499619,172.972397 247.640442,173.417450 247.640442,174.339340 
	C254.685196,178.349808 262.593719,180.495499 270.797272,181.774979 
	C272.438385,182.030945 274.141571,182.002548 275.735870,182.415329 
	C277.550995,182.885269 279.123871,184.428955 277.698120,186.064819 
	C268.164093,197.003952 270.061310,211.652649 265.078094,224.011139 
	C260.872009,234.442383 255.282974,243.803131 242.923203,246.356720 
	C239.666275,247.029633 237.249283,249.168488 235.549179,251.947586 
	C230.410522,260.347565 223.468872,264.596863 213.175598,261.678925 
	C212.728699,266.704895 214.508118,272.798706 207.295441,274.168457 
	C202.827896,275.016846 199.101257,271.238678 196.148453,265.140747 
	C192.059052,256.695587 200.426239,257.400330 203.659225,254.340683 
	C202.748825,252.503632 199.698288,252.464600 200.166046,249.846176 
	C200.323532,248.964569 201.163528,248.534836 202.056335,248.495468 
	C204.493637,248.388000 206.699966,249.742828 207.411743,251.585770 
	C209.532547,257.076996 213.783386,258.741852 218.855515,258.225250 
	C223.815460,257.720062 227.788589,255.138306 230.369858,250.480804 
	C232.354843,246.899200 235.551743,244.004379 239.523651,243.143082 
	C251.618088,240.520493 256.399353,231.033417 260.843872,221.216095 
	C263.547607,215.243958 264.445251,208.764191 265.047668,202.288635 
	C265.553284,196.853683 268.385162,192.309296 271.042389,187.105865 
	C266.109192,185.720352 261.690277,184.512360 257.292938,183.230453 
	C255.058533,182.579086 252.572174,182.230865 250.705505,180.986725 
	C245.569489,177.563522 241.466629,178.487534 236.897446,182.364090 
	C219.647156,196.999481 198.744598,203.480118 177.169861,208.231445 
	C173.180893,209.109924 169.765076,210.445847 166.640076,213.339279 
	C161.572891,218.030960 154.989487,217.741364 148.637970,217.111786 
	C146.079971,216.858246 143.863861,216.843094 141.443558,218.017410 
	C137.305893,220.024994 133.139221,219.352524 129.924103,216.097961 
	C127.814529,213.962524 125.763588,213.691727 122.889122,213.623047 
	C104.956810,213.194611 86.910522,213.192383 69.963219,205.923569 
	C64.818649,203.717041 60.742638,199.965118 56.691620,196.266479 
	C54.040802,193.846237 53.642200,190.401321 53.867962,187.022308 
	C53.982605,185.306396 54.215485,183.724579 52.820129,182.028931 
z"/>
<path fill="#000000" opacity="1.000000" stroke="none" 
	d="
M185.513824,172.743225 
	C164.593842,178.266617 143.594925,180.079681 122.495369,181.480667 
	C112.219170,182.162994 101.987007,183.348343 91.659348,183.321274 
	C81.944244,183.295792 72.429405,182.379028 63.408268,178.457336 
	C61.828468,177.770569 60.090500,176.990967 61.123070,174.848770 
	C61.939491,173.154999 63.622303,173.412399 65.069237,174.007523 
	C77.947083,179.304428 91.471703,178.782257 104.878876,177.922714 
	C125.936996,176.572647 147.072296,175.807617 167.884857,171.809784 
	C184.774628,168.565475 201.091827,163.583923 216.600464,156.070953 
	C218.242798,155.275330 219.954163,154.595749 221.685593,154.018646 
	C223.122360,153.539764 224.850433,153.185135 225.664017,154.862457 
	C226.582550,156.756134 224.871353,157.620895 223.549362,158.164566 
	C214.634506,161.830917 206.118088,166.456467 196.856201,169.285736 
	C193.206207,170.400726 189.554794,171.511139 185.513824,172.743225 
z"/>
<path fill="#000000" opacity="1.000000" stroke="none" 
	d="
M80.112015,125.000404 
	C76.208038,125.400185 74.860992,128.239944 73.197868,130.699234 
	C71.431480,133.311218 69.683220,135.935501 67.932907,138.558319 
	C67.155487,139.723251 66.201942,140.764587 64.687645,140.334595 
	C62.977882,139.849106 63.288887,138.380768 63.395576,137.025696 
	C63.565109,134.872391 63.227757,132.595352 63.810642,130.574188 
	C65.532799,124.602600 66.235611,119.076996 60.866325,114.333275 
	C59.315334,112.962982 60.035530,110.615555 62.218632,110.852463 
	C70.697563,111.772575 74.421181,105.868797 78.689949,100.344467 
	C80.482307,98.024910 82.465111,93.966507 85.971985,95.923340 
	C89.083542,97.659592 86.019501,100.986115 85.585060,103.581818 
	C85.174927,106.032295 84.669640,108.498962 83.870399,110.844063 
	C82.871269,113.775650 83.572289,115.986694 85.849243,117.950348 
	C87.167366,119.087097 89.356354,119.998665 88.581917,122.220520 
	C87.759468,124.580086 85.330116,124.038658 83.419525,124.325554 
	C82.438103,124.472931 81.468842,124.701218 80.112015,125.000404 
M75.437279,115.705193 
	C73.746231,115.558418 71.948456,114.650490 70.468605,116.343437 
	C72.765450,118.512703 72.765450,118.512703 75.645584,119.261490 
	C76.472450,118.188141 77.042763,117.099998 75.437279,115.705193 
z"/>
<path fill="#000000" opacity="1.000000" stroke="none" 
	d="
M165.457077,134.670883 
	C161.233856,136.825836 157.245102,136.011322 153.413651,135.030853 
	C149.560852,134.044891 147.248154,131.315994 146.718353,127.240616 
	C146.222427,123.425934 147.885330,120.869827 151.227631,119.208000 
	C155.122116,117.271606 159.140045,115.720978 163.564011,115.875916 
	C169.474304,116.082901 174.023285,119.864563 174.480148,124.759880 
	C174.922974,129.505142 172.016113,132.784088 165.457077,134.670883 
M166.052185,123.196915 
	C163.334686,119.656090 160.139145,119.794624 154.609039,124.040695 
	C158.596848,126.764160 162.120239,125.775040 166.052185,123.196915 
z"/>
<path fill="#000000" opacity="1.000000" stroke="none" 
	d="
M88.565475,144.493011 
	C85.970253,140.921463 84.403755,137.505829 86.913376,133.643402 
	C90.509460,128.108795 96.050560,126.630104 102.114075,127.156052 
	C109.945465,127.835350 112.834068,130.910553 112.391014,137.111038 
	C112.214012,139.588257 111.169052,141.498398 109.257690,143.068771 
	C103.304459,147.959976 95.865181,148.614532 88.565475,144.493011 
M94.467903,133.736160 
	C92.086060,136.857849 94.905411,137.255508 96.692879,137.272400 
	C99.652054,137.300385 102.412796,136.302795 104.238861,133.387924 
	C100.982452,130.562378 97.999840,131.658081 94.467903,133.736160 
z"/>
<path fill="#000000" opacity="1.000000" stroke="none" 
	d="
M111.325943,260.794891 
	C114.486038,259.249054 117.809692,259.686005 121.138779,259.914642 
	C123.995163,260.110779 127.120087,262.328308 129.553131,258.687988 
	C130.079773,257.900024 131.435211,258.379639 132.190506,259.204895 
	C133.104324,260.203339 132.971817,261.281677 132.463058,262.445923 
	C131.416321,264.841217 129.688995,265.689392 127.024094,264.462067 
	C126.143173,266.826447 125.349472,268.800934 124.670532,270.814087 
	C123.543320,274.156433 121.191513,275.458771 117.768990,275.309967 
	C114.328941,275.160400 112.096504,273.648560 111.389954,270.169617 
	C110.835526,267.439697 109.395264,264.807220 110.765770,261.454956 
	C111.044701,261.012146 111.325943,260.794891 111.325943,260.794891 
z"/>
<path fill="#000000" opacity="1.000000" stroke="none" 
	d="
M138.939453,147.728943 
	C138.986115,150.104614 137.101028,151.690720 137.751694,153.861496 
	C139.565948,154.717545 140.552078,153.446976 141.564606,152.412933 
	C142.543869,151.412857 143.677216,150.270966 144.938797,151.456467 
	C146.462860,152.888611 145.635773,154.661041 144.484131,155.908569 
	C142.968246,157.550644 140.831070,158.461212 138.651016,158.376236 
	C135.217972,158.242462 132.111511,159.172409 129.000198,160.373215 
	C126.474579,161.348007 124.084641,161.055588 121.967712,159.291382 
	C120.781898,158.303146 119.585075,157.161880 120.555061,155.489288 
	C121.601807,153.684357 123.105042,154.327682 124.408501,155.234207 
	C126.365280,156.595123 128.221832,157.407608 130.033997,154.908997 
	C130.128845,152.265945 124.476479,150.334824 128.509628,147.423920 
	C131.578918,145.208679 135.411728,144.150436 138.939453,147.728943 
z"/>
<path fill="#000000" opacity="1.000000" stroke="none" 
	d="
M229.003571,78.609932 
	C232.171661,74.318321 235.805466,76.462616 239.080780,77.480309 
	C241.479843,78.225731 242.571808,80.539070 242.227554,83.071854 
	C241.717148,86.827164 239.191620,89.393951 236.029236,90.883621 
	C233.504578,92.072899 231.253952,90.696449 229.894653,88.179924 
	C228.314880,85.255180 228.445999,82.151039 229.003571,78.609932 
z"/>
<path fill="#000000" opacity="1.000000" stroke="none" 
	d="
M41.679443,126.865608 
	C45.528446,129.272430 46.658772,132.730652 45.506554,136.427948 
	C44.485771,139.703476 41.392761,140.567322 38.133419,140.134354 
	C35.360531,139.766006 32.908665,138.584732 31.852808,135.843597 
	C30.757339,132.999588 32.919853,131.131409 34.557472,129.330948 
	C36.300751,127.414330 38.556740,126.363815 41.679443,126.865608 
z"/>
<path fill="#000000" opacity="1.000000" stroke="none" 
	d="
M242.137939,204.983459 
	C238.012497,203.554398 235.625473,200.653717 233.094498,197.631485 
	C234.850540,195.155777 236.767914,195.248428 238.534271,197.073639 
	C240.787292,199.401688 243.571518,200.828079 246.330414,202.347107 
	C247.698135,203.100143 250.146347,203.344849 249.442612,205.479080 
	C248.609543,208.005478 246.408112,206.566956 244.747925,206.153885 
	C243.955658,205.956757 243.228210,205.499146 242.137939,204.983459 
z"/>
<path fill="#000000" opacity="1.000000" stroke="none" 
	d="
M85.278778,157.165253 
	C84.377686,159.049469 83.902832,161.608063 81.617241,160.589340 
	C79.052071,159.445999 80.592232,157.295044 81.426926,155.548309 
	C81.709152,154.957703 81.924850,154.334274 82.222908,153.752472 
	C82.950142,152.332916 83.504997,150.270538 85.654846,151.250381 
	C87.844475,152.248367 86.582451,153.978943 85.951523,155.445068 
	C85.757545,155.895798 85.573059,156.350632 85.278778,157.165253 
z"/>
<path fill="#000000" opacity="1.000000" stroke="none" 
	d="
M72.067413,150.975281 
	C74.175728,153.533508 71.830276,160.650345 69.109131,160.843826 
	C66.971031,160.995850 66.446747,159.456146 67.199150,157.884354 
	C68.381325,155.414780 69.047821,152.533386 72.067413,150.975281 
z"/>
<path fill="#000000" opacity="1.000000" stroke="none" 
	d="
M190.308807,134.122482 
	C188.456467,136.102203 187.788925,140.708817 184.870728,138.641739 
	C181.986313,136.598587 185.558136,133.825439 186.860779,131.590302 
	C187.500412,130.492813 188.546204,129.225677 190.035721,129.984650 
	C191.820175,130.893875 191.107101,132.437424 190.308807,134.122482 
z"/>
<path fill="#000000" opacity="1.000000" stroke="none" 
	d="
M78.717232,156.678726 
	C77.828209,158.088333 77.191391,159.240265 76.353523,160.220306 
	C75.994576,160.640182 75.146286,160.993210 74.643875,160.870575 
	C73.328773,160.549530 72.663307,159.470825 73.356079,158.258713 
	C74.749237,155.821182 74.795906,152.009613 78.273407,151.571152 
	C80.195061,151.328888 79.885109,153.526703 79.441406,154.988678 
	C79.299614,155.455872 79.074821,155.897888 78.717232,156.678726 
z"/>
<path fill="#000000" opacity="1.000000" stroke="none" 
	d="
M182.385468,135.351807 
	C182.205612,135.847397 182.164276,136.018280 182.064560,136.142212 
	C180.671280,137.873901 180.111374,140.450699 177.471207,140.893829 
	C177.059784,140.962875 176.160599,140.282684 176.085175,139.845703 
	C175.608688,137.085495 177.855637,135.443634 178.996399,133.350449 
	C179.472107,132.477585 180.337326,131.772293 181.431549,132.148621 
	C182.828690,132.629135 182.801193,133.803665 182.385468,135.351807 
z"/>
<path fill="#000000" opacity="1.000000" stroke="none" 
	d="
M128.668488,20.543255 
	C127.956032,22.727055 127.765045,24.774721 125.663109,25.988764 
	C122.716881,23.955856 123.722237,21.329224 124.301376,18.904570 
	C124.575836,17.755526 125.510696,16.859446 126.848259,16.978863 
	C128.838120,17.156513 129.177032,18.474422 128.668488,20.543255 
z"/>
<path fill="#000000" opacity="1.000000" stroke="none" 
	d="
M191.622864,136.712952 
	C191.810532,135.585022 191.923767,134.755829 192.262497,134.032181 
	C193.122116,132.195801 193.478729,129.583984 196.399689,130.159927 
	C197.812363,130.438477 197.817963,132.024170 197.324036,133.024994 
	C196.250320,135.200623 196.224899,138.395401 192.748810,138.506760 
	C192.398727,138.517975 192.017761,137.565155 191.622864,136.712952 
z"/>
<path fill="#000000" opacity="1.000000" stroke="none" 
	d="
M74.424713,42.594559 
	C73.384277,41.513947 72.488914,40.765682 71.815186,39.853687 
	C71.324333,39.189255 71.246796,38.289330 71.894707,37.580559 
	C72.684692,36.716362 73.706329,36.729603 74.572372,37.307453 
	C76.959900,38.900490 78.589455,41.016933 78.987495,43.859547 
	C76.773262,45.610279 75.804298,43.942490 74.424713,42.594559 
z"/>
<path fill="#000000" opacity="1.000000" stroke="none" 
	d="
M62.136955,53.855434 
	C60.435848,52.877171 58.157730,52.272812 59.183170,50.243656 
	C60.403770,47.828335 62.351460,49.607113 63.832134,50.369576 
	C65.807434,51.386738 67.990143,52.427818 67.584923,55.230709 
	C65.163727,56.760563 64.053535,54.546398 62.136955,53.855434 
z"/>
<path fill="#000000" opacity="1.000000" stroke="none" 
	d="
M147.989319,262.314453 
	C148.003159,263.352814 148.041977,264.026703 147.876999,264.646332 
	C147.503662,266.048553 147.273636,267.722412 145.342468,267.755341 
	C144.045135,267.777466 143.310211,266.831726 142.999512,265.617035 
	C142.511139,263.707886 142.909164,261.958221 144.467545,260.756836 
	C146.014923,259.563904 147.194489,260.272369 147.989319,262.314453 
z"/>
<path fill="#000000" opacity="1.000000" stroke="none" 
	d="
M111.182724,126.184311 
	C110.213120,126.557968 109.580254,126.909004 108.967201,126.877274 
	C106.829796,126.766632 104.456909,126.663460 104.133682,123.883507 
	C103.940277,122.220001 105.503738,121.489738 106.794861,121.882111 
	C108.871040,122.513077 112.572578,121.648773 111.182724,126.184311 
z"/>
<path fill="#000000" opacity="1.000000" stroke="none" 
	d="
M89.259789,154.489426 
	C90.136978,152.678116 90.742676,150.927414 92.841209,151.293793 
	C94.292603,151.547195 94.289452,152.859024 94.205017,154.043060 
	C94.024086,156.580460 92.360413,158.302948 89.393250,159.018677 
	C88.247597,157.702118 88.821899,156.264359 89.259789,154.489426 
z"/>
<path fill="#000000" opacity="1.000000" stroke="none" 
	d="
M93.609665,243.752472 
	C92.407394,244.902451 91.467613,245.847595 90.389084,246.591599 
	C89.632217,247.113708 88.701508,246.903351 88.223373,246.095703 
	C87.297127,244.531128 88.106995,243.221130 89.104485,242.042358 
	C90.179794,240.771606 91.305580,239.265671 93.243546,240.075821 
	C94.951248,240.789719 94.360298,242.201538 93.609665,243.752472 
z"/>
<path fill="#000000" opacity="1.000000" stroke="none" 
	d="
M205.346771,130.424957 
	C205.345963,131.542435 205.428589,132.472824 205.033600,133.104630 
	C204.049057,134.679474 203.459869,137.182159 200.953049,136.575775 
	C199.312317,136.178909 199.605103,134.402695 200.349792,133.271271 
	C201.471573,131.566864 201.377838,127.714989 205.346771,130.424957 
z"/>
<path fill="#000000" opacity="1.000000" stroke="none" 
	d="
M99.475090,249.786270 
	C103.440704,250.015030 102.411240,251.924271 101.075645,253.717438 
	C100.017570,255.138062 98.768753,257.329803 96.757629,256.122375 
	C94.469543,254.748672 96.143188,252.971909 97.323692,251.576218 
	C97.853027,250.950378 98.529259,250.448807 99.475090,249.786270 
z"/>
<path fill="#000000" opacity="1.000000" stroke="none" 
	d="
M71.697784,215.539032 
	C69.683998,214.865463 68.519531,213.850082 69.804970,212.162018 
	C71.031609,210.551132 72.859352,211.245911 74.404480,211.825760 
	C75.645058,212.291321 77.122261,213.073761 76.421471,214.675797 
	C75.543907,216.681931 73.678040,215.996994 71.697784,215.539032 
z"/>
<path fill="#000000" opacity="1.000000" stroke="none" 
	d="
M169.290527,266.968842 
	C168.484283,266.661804 167.972275,266.478455 167.692780,266.115875 
	C166.378296,264.410645 164.964355,262.601196 166.853378,260.501160 
	C167.768478,259.483856 169.150681,259.715118 169.805023,260.800201 
	C171.013733,262.804626 172.733582,265.007874 169.290527,266.968842 
z"/>
<path fill="#000000" opacity="1.000000" stroke="none" 
	d="
M192.435928,260.389221 
	C189.669830,262.544952 186.383438,261.462830 185.939774,258.601990 
	C185.802017,257.713745 186.008972,256.929565 186.739243,256.415527 
	C187.470490,255.900772 188.384796,255.832977 189.034836,256.446808 
	C190.222580,257.568451 191.279816,258.828308 192.435928,260.389221 
z"/>
<path fill="#000000" opacity="1.000000" stroke="none" 
	d="
M216.422455,53.411636 
	C215.039108,54.127914 213.887802,54.456779 213.075882,53.288052 
	C212.318253,52.197468 212.739548,51.042206 213.556992,50.182449 
	C214.984299,48.681252 216.409500,46.869953 218.830994,48.548977 
	C219.463516,50.773182 217.823898,51.860081 216.422455,53.411636 
z"/>
<path fill="#000000" opacity="1.000000" stroke="none" 
	d="
M244.624344,111.762680 
	C243.630569,111.714859 242.965286,111.682335 242.343460,111.500885 
	C240.621262,110.998337 238.996521,110.040276 240.016464,108.055573 
	C241.190201,105.771591 243.179428,107.000702 244.718369,107.807030 
	C246.729904,108.860970 247.430786,110.245438 244.624344,111.762680 
z"/>
<path fill="#000000" opacity="1.000000" stroke="none" 
	d="
M110.907486,261.125061 
	C109.055580,260.834747 107.587029,260.154938 107.850441,258.018036 
	C108.066902,256.261963 109.156120,255.020462 110.693756,254.296341 
	C111.118538,254.096298 112.128227,254.355347 112.396408,254.736572 
	C113.819191,256.759064 112.182037,258.401581 111.428307,260.479126 
	C111.325943,260.794891 111.044701,261.012146 110.907486,261.125061 
z"/>
<path fill="#000000" opacity="1.000000" stroke="none" 
	d="
M158.957520,20.054380 
	C158.389984,22.428738 157.860321,24.491602 155.357483,25.341978 
	C153.111435,23.091644 154.205368,20.974409 155.521698,19.192818 
	C156.598038,17.736050 158.040543,17.816711 158.957520,20.054380 
z"/>
<path fill="#000000" opacity="1.000000" stroke="none" 
	d="
M215.979431,238.467331 
	C216.247147,238.013718 216.356766,237.857513 216.502335,237.808853 
	C219.477859,236.814133 220.710022,238.903839 221.709930,240.989380 
	C222.202972,242.017731 221.343689,243.089294 220.255157,243.057343 
	C217.623871,242.980087 215.940781,241.654022 215.979431,238.467331 
z"/>
<path fill="#000000" opacity="1.000000" stroke="none" 
	d="
M230.626129,223.048370 
	C232.148987,223.816666 233.669052,224.445557 232.528168,226.061615 
	C231.579102,227.405975 229.954926,227.325180 228.476227,226.934738 
	C227.303253,226.625015 226.147186,225.901764 226.358231,224.613037 
	C226.735016,222.312134 228.620758,222.759583 230.626129,223.048370 
z"/>
<path fill="#000000" opacity="1.000000" stroke="none" 
	d="
M139.794815,166.597198 
	C138.862183,167.007370 138.242706,167.284882 137.601578,167.350388 
	C136.056000,167.508286 134.011078,167.359039 134.354691,165.461121 
	C134.839783,162.781738 137.721817,162.909729 139.621887,163.134827 
	C141.950027,163.410675 141.201065,165.074158 139.794815,166.597198 
z"/>
<path fill="#000000" opacity="1.000000" stroke="none" 
	d="
M47.086624,71.942703 
	C49.507111,72.510323 51.631680,73.060837 51.390015,76.089127 
	C48.973633,77.289894 47.106579,76.330566 45.659176,74.674126 
	C44.658852,73.529335 45.513191,72.557518 47.086624,71.942703 
z"/>
<path fill="#000000" opacity="1.000000" stroke="none" 
	d="
M72.762268,228.536179 
	C73.123528,223.796783 75.734962,224.606369 79.041985,225.751419 
	C77.701813,228.852768 75.727654,229.534470 72.762268,228.536179 
z"/>
<path fill="#000000" opacity="1.000000" stroke="none" 
	d="
M84.496353,237.508331 
	C82.893478,238.647736 81.501755,239.263336 80.374496,237.544403 
	C79.576881,236.328186 80.283508,235.329117 81.250267,234.541489 
	C82.358528,233.638596 83.667679,233.194489 84.924843,234.015808 
	C86.545486,235.074615 85.811020,236.236237 84.496353,237.508331 
z"/>
<path fill="#000000" opacity="1.000000" stroke="none" 
	d="
M144.321350,118.974113 
	C143.461639,114.654320 145.251450,113.429459 149.300537,114.265869 
	C148.668564,117.151321 148.112335,119.601082 144.321350,118.974113 
z"/>
<path fill="#000000" opacity="1.000000" stroke="none" 
	d="
M97.292160,30.291096 
	C96.441956,28.907366 95.546631,27.727081 96.859154,26.544022 
	C97.717628,25.770239 98.746399,25.992159 99.468987,26.792906 
	C100.378342,27.800608 100.938698,29.097679 100.310715,30.389196 
	C99.597404,31.856207 98.500458,31.378746 97.292160,30.291096 
z"/>
<path fill="#000000" opacity="1.000000" stroke="none" 
	d="
M39.890209,102.952332 
	C41.862427,104.219810 42.295383,105.497108 40.017654,106.097893 
	C38.369759,106.532555 36.121319,106.981567 35.284832,104.828239 
	C34.631268,103.145790 36.118935,102.613060 37.594223,102.618774 
	C38.244011,102.621284 38.893307,102.752419 39.890209,102.952332 
z"/>
<path fill="#000000" opacity="1.000000" stroke="none" 
	d="
M232.016815,208.254181 
	C234.074020,207.437943 235.777725,207.277466 236.999451,209.181580 
	C233.641037,212.194122 232.865005,212.078430 232.016815,208.254181 
z"/>
</svg>